<?xml version="1.0" standalone="no"?>
<!DOCTYPE svg PUBLIC "-//W3C//DTD SVG 1.1//EN" "http://www.w3.org/Graphics/SVG/1.1/DTD/svg11.dtd" >
<svg xmlns="http://www.w3.org/2000/svg">
<metadata></metadata>
<defs>
<font id="MyriadProBoldItalic" horiz-adv-x="1107" >
<font-face units-per-em="2048" ascent="1536" descent="-512" />
<missing-glyph horiz-adv-x="376" />
<glyph unicode="&#xfb03;" horiz-adv-x="1771" d="M59 0l148 778h-131l43 223h129l10 43q41 188 143 293q117 117 306 117q100 0 176 -41l-99 -217q-35 20 -79 21q-55 0 -91 -35q-47 -45 -65 -146l-8 -35h329l9 41q41 207 188 321t371 114q178 -1 276 -58l-78 -227q-109 45 -219 45q-215 0 -248 -193l-6 -43h580 l-191 -1001h-295l146 778h-281l-145 -778h-297l147 778h-327l-146 -778h-295z" />
<glyph unicode="&#xfb04;" horiz-adv-x="1771" d="M59 0l148 778h-131l43 223h129l8 35q37 199 145 303q115 115 301 115q99 0 177 -39l-88 -219q-45 20 -86 21q-55 0 -93 -37q-47 -47 -63 -142l-8 -37h327l9 46q37 207 200 327q141 102 375 103q92 0 195.5 -22.5t167.5 -61.5l-263 -1393h-295l232 1225q-41 20 -113 20 q-84 0 -138 -57.5t-69 -147.5l-6 -39h172l-43 -223h-170l-147 -778h-295l147 778h-327l-146 -778h-295z" />
<glyph horiz-adv-x="2048" />
<glyph horiz-adv-x="2048" />
<glyph unicode="&#xd;" horiz-adv-x="681" />
<glyph unicode=" "  horiz-adv-x="376" />
<glyph unicode="&#x09;" horiz-adv-x="376" />
<glyph unicode="&#xa0;" horiz-adv-x="376" />
<glyph unicode="!" horiz-adv-x="550" d="M29 145q0 84 56 144.5t140 60.5q76 0 123 -48t47 -124q0 -88 -57 -144.5t-143 -56.5q-74 0 -120 47.5t-46 120.5zM150 453l133 927h317l-223 -927h-227z" />
<glyph unicode="&#x22;" horiz-adv-x="792" d="M170 834l61 569h275l-152 -569h-184zM563 834l62 569h274l-151 -569h-185z" />
<glyph unicode="#" d="M45 367l31 184h196l76 235h-174l31 185h201l114 360h178l-114 -360h180l115 360h180l-115 -360h166l-31 -185h-192l-74 -235h170l-31 -184h-200l-115 -367h-182l116 367h-178l-114 -367h-183l117 367h-168zM455 551h176l76 235h-179z" />
<glyph unicode="$" d="M35 123l94 225q135 -102 324 -102q94 0 152.5 39t58.5 104q0 53 -39 93t-133 85q-299 150 -299 353q0 154 114.5 262t298.5 129l37 182h193l-33 -180q164 -8 264 -78l-94 -217q-123 74 -279 74q-84 0 -133 -37t-49 -92q0 -47 45 -85t160 -96q268 -133 268 -350 q0 -178 -125 -286.5t-311 -129.5l-39 -196h-193l37 194q-88 4 -178 37t-141 72z" />
<glyph unicode="%" horiz-adv-x="1779" d="M127 850q0 207 123 355.5t313 148.5q137 0 216 -85t79 -220q0 -219 -123 -366.5t-305 -147.5q-135 0 -219 85t-84 230zM332 -23l989 1377h174l-987 -1377h-176zM352 844q0 -61 25.5 -100t75.5 -39q82 0 131 118.5t49 227.5q0 133 -98 133q-82 0 -132.5 -115t-50.5 -225z M977 297q0 205 123 355.5t313 150.5q137 0 216 -85t79 -220q0 -219 -124 -367.5t-306 -148.5q-133 0 -217 85t-84 230zM1202 291q0 -139 101 -139q55 0 99 64.5t62.5 141t18.5 142.5q-1 133 -99 133q-55 0 -99 -60.5t-63.5 -137.5t-19.5 -144z" />
<glyph unicode="&#x26;" horiz-adv-x="1363" d="M31 342q0 274 331 426l3 6q-76 123 -76 234q0 170 121.5 282.5t310.5 112.5q156 0 253 -85t97 -222q0 -223 -342 -381v-6q41 -68 184 -265q113 129 191 351h270q-121 -344 -325 -537q83 -123 200 -258h-348q-16 18 -44 53t-32 41q-154 -117 -368 -117q-193 0 -309.5 99.5 t-116.5 265.5zM330 393q0 -84 55.5 -139t153.5 -55q96 0 170 65q-145 193 -244 346q-135 -98 -135 -217zM553 1036q0 -84 61 -170q195 90 195 228q0 51 -29 84.5t-84 33.5q-59 0 -101 -50t-42 -126z" />
<glyph unicode="'" horiz-adv-x="405" d="M174 836l64 567h274l-152 -567h-186z" />
<glyph unicode="(" horiz-adv-x="643" d="M125 311q0 338 112.5 620.5t294.5 481.5h220q-172 -213 -281 -496.5t-109 -595t82 -559.5h-208q-111 246 -111 549z" />
<glyph unicode=")" horiz-adv-x="643" d="M-76 -238q172 217 281.5 501t109.5 593q0 313 -84 557h211q111 -244 111 -545q0 -340 -112 -622.5t-296 -483.5h-221z" />
<glyph unicode="*" horiz-adv-x="925" d="M131 891l39 211l301 -66v4l-186 260l196 103l80 -313h4l148 313l170 -105l-250 -258l2 -6l336 68l-39 -211l-314 59v-6l193 -254l-195 -104l-81 317l-5 -2l-149 -315l-168 108l250 254v4z" />
<glyph unicode="+" horiz-adv-x="1220" d="M88 453v188h424v449h199v-449h424v-188h-424v-453h-199v453h-424z" />
<glyph unicode="," horiz-adv-x="532" d="M-119 -244q160 322 234 582l319 20q-150 -331 -340 -583z" />
<glyph unicode="-" horiz-adv-x="659" d="M51 434l39 207h531l-39 -207h-531z" />
<glyph unicode="." horiz-adv-x="532" d="M37 150q0 86 55 147t144 61q76 0 123 -48t47 -126q0 -90 -57.5 -147t-145.5 -57q-74 0 -120 48t-46 122z" />
<glyph unicode="/" horiz-adv-x="667" d="M-82 -82l713 1485h209l-713 -1485h-209z" />
<glyph unicode="0" d="M82 457q0 162 41 318.5t115.5 286.5t197 211t269.5 81q201 0 291.5 -129t90.5 -328q0 -162 -38.5 -320.5t-112.5 -295t-196 -220.5t-273 -84q-197 0 -291 132.5t-94 347.5zM371 446q0 -236 133 -235q72 0 131 81t92 196.5t51.5 224t18.5 182.5q0 225 -125 225 q-92 0 -165 -131t-104.5 -281.5t-31.5 -261.5z" />
<glyph unicode="1" d="M299 1169l371 162h239l-250 -1331h-284l198 1055h-4l-262 -117z" />
<glyph unicode="2" d="M-6 0l35 190l286 222q229 188 334 305t105 227q0 72 -48.5 117t-136.5 45q-154 0 -280 -78l-60 211q186 115 412 115q197 0 306.5 -101.5t109.5 -261.5q0 -98 -35 -187t-105.5 -171t-139 -142.5t-173.5 -140.5l-131 -94v-4h477l-47 -252h-909z" />
<glyph unicode="3" d="M16 68l90 231q137 -74 293 -74q121 0 192 54.5t71 136.5q0 180 -273 176h-51l43 225h47q115 0 205 46t90 128q0 117 -164 117q-160 0 -274 -66l-41 222q166 90 374 90q178 0 298 -81t120 -233q0 -119 -84 -207t-213 -120l-2 -4q104 -23 168 -101t64 -190 q0 -201 -172 -321t-404 -120q-123 0 -226.5 26t-150.5 65z" />
<glyph unicode="4" d="M20 324l37 196l635 811h363l-148 -782h156l-41 -225h-158l-61 -324h-277l62 324h-568zM352 549h279l61 289q8 37 18.5 81t25 97t20.5 82h-8q-160 -242 -175 -262l-219 -283z" />
<glyph unicode="5" d="M27 55l75 236q106 -66 275 -66q119 0 211 59.5t92 161.5q0 205 -330 205q-53 0 -164 -8l193 688h713l-52 -252h-469l-61 -207q20 4 55 5q164 0 277 -82q145 -100 145 -297q0 -240 -177 -380.5t-437 -140.5q-117 0 -210 23t-136 55z" />
<glyph unicode="6" d="M66 444q0 219 92 407.5t237 303.5q225 178 545 195q52 4 111 0l-45 -242q-53 4 -111 -2q-174 -16 -296 -102t-173 -211l2 -2q115 102 274 102q147 0 243.5 -104.5t96.5 -268.5q0 -221 -151.5 -382t-380.5 -161q-215 0 -329.5 130.5t-114.5 336.5zM354 412 q0 -90 44 -148.5t120 -58.5q100 0 159.5 90t59.5 194q0 86 -45 135.5t-119 49.5q-121 0 -192 -125q-20 -35 -21 -66q-6 -41 -6 -71z" />
<glyph unicode="7" d="M55 0q242 358 721 1075v4h-577l47 252h905l-39 -196q-420 -655 -731 -1135h-326z" />
<glyph unicode="8" d="M37 319q0 133 79 230.5t206 148.5l2 4q-133 98 -134 250q0 180 144.5 291t347.5 111q170 0 282.5 -86t112.5 -238q0 -205 -239 -315l-2 -6q88 -49 136 -129t48 -166q0 -205 -163 -321t-376 -116q-207 2 -325.5 96.5t-118.5 245.5zM346 358q0 -72 45 -118.5t123 -46.5 q80 0 138.5 53t58.5 139q0 141 -172 203q-82 -20 -137.5 -82t-55.5 -148zM473 971q0 -115 156 -170q68 25 116 77t48 119q0 61 -38 101.5t-106 40.5q-74 0 -125 -50.5t-51 -117.5z" />
<glyph unicode="9" d="M98 -18l37 243q29 -4 125 0q143 10 262 82q152 96 215 246l-4 2q-94 -96 -251.5 -96t-257 99t-99.5 261q0 219 158.5 377t384.5 158q211 0 320.5 -128t109.5 -337q-2 -225 -98.5 -420t-239.5 -307q-207 -166 -508 -180q-76 -4 -154 0zM428 856q0 -82 42 -130t112 -48 q115 0 178 88q20 27 31 63q10 33 10 107q0 84 -40 137t-120 53q-86 0 -149.5 -84t-63.5 -186z" />
<glyph unicode=":" horiz-adv-x="532" d="M37 145q0 84 56.5 145.5t142.5 61.5q74 0 120.5 -49t46.5 -125q0 -88 -56 -144.5t-144 -56.5q-74 0 -120 47.5t-46 120.5zM162 807q0 84 56 145.5t142 61.5q74 0 121 -48t47 -124q0 -88 -56 -145.5t-144 -57.5q-74 0 -120 47t-46 121z" />
<glyph unicode=";" horiz-adv-x="532" d="M-119 -244q160 322 234 582l317 20q-154 -341 -340 -583zM172 807q0 84 56.5 145.5t142.5 61.5q74 0 121 -48t47 -124q0 -88 -57.5 -145.5t-143.5 -57.5q-74 0 -120 47t-46 121z" />
<glyph unicode="&#x3c;" horiz-adv-x="1220" d="M106 457v176l975 457v-218l-735 -325v-4l735 -326v-217z" />
<glyph unicode="=" horiz-adv-x="1220" d="M86 242v188h1047v-188h-1047zM86 666v190h1047v-190h-1047z" />
<glyph unicode="&#x3e;" horiz-adv-x="1220" d="M156 0v215l751 328v4l-751 327v216l974 -451v-188z" />
<glyph unicode="?" horiz-adv-x="894" d="M176 145q0 84 55.5 144.5t141.5 60.5q76 0 122 -48t46 -124q0 -88 -56.5 -144.5t-144.5 -56.5q-74 0 -119 47.5t-45 120.5zM240 1315q141 88 346 88q150 0 245 -77t95 -202q0 -76 -37 -150.5t-73 -114.5t-116 -120q-113 -113 -137 -235q-2 -8 -5 -24.5t-5 -24.5h-287 q4 37 6 53q25 160 185 332q16 18 57 60t57.5 61.5t33 50t16.5 55.5q0 96 -121 98q-131 0 -221 -57z" />
<glyph unicode="@" horiz-adv-x="1533" d="M80 432q0 209 94 386t271.5 285.5t400.5 108.5q270 0 444 -166.5t174 -424.5q0 -221 -109.5 -354.5t-279.5 -133.5q-160 0 -174 158h-6q-96 -158 -264 -158q-102 0 -166 71.5t-64 194.5q0 195 133.5 336.5t346.5 141.5q152 0 243 -52l-61 -379q-14 -90 -2 -133t55 -45 q74 -2 135.5 90.5t61.5 255.5q0 207 -129 340t-361 133q-244 0 -415.5 -176t-171.5 -460q0 -252 144 -394.5t382 -142.5q170 0 295 66l37 -119q-158 -74 -373 -74q-268 0 -454.5 177t-186.5 468zM608 424q0 -127 101 -127q57 0 108.5 63.5t65.5 151.5l30 195q-37 8 -63 8 q-102 0 -172 -86t-70 -205z" />
<glyph unicode="A" horiz-adv-x="1265" d="M-57 0l671 1380h379l162 -1380h-309l-29 358h-397l-164 -358h-313zM506 584h299l-27 297q-6 88 -20 270h-4q-6 -16 -47 -119.5t-64 -150.5z" />
<glyph unicode="B" horiz-adv-x="1191" d="M41 16l254 1342q174 33 362 33q219 0 342 -74q160 -82 160 -252q0 -123 -79 -208t-199 -120v-6q100 -31 158.5 -109.5t58.5 -191.5q0 -203 -189 -328q-165 -110 -514 -110h-6h-18q-218 0 -330 24zM369 227q51 -6 112 -6q131 0 218 54.5t87 162.5q0 178 -251 178h-93z M487 831h99q123 0 197.5 50.5t74.5 136.5q0 72 -53 107.5t-141 35.5q-78 0 -115 -10z" />
<glyph unicode="C" horiz-adv-x="1193" d="M100 565q0 225 93.5 403.5t255.5 286.5q211 147 507 148q207 0 301 -60l-79 -239q-90 45 -250 45q-186 0 -316 -107q-190 -154 -190 -444q0 -168 94 -267.5t272 -99.5q154 0 263 45l24 -237q-133 -59 -364 -59q-276 0 -443.5 157.5t-167.5 427.5z" />
<glyph unicode="D" horiz-adv-x="1394" d="M43 16l256 1344q174 31 381 31q330 0 504 -150q180 -150 182 -432q0 -197 -77 -363.5t-208 -271.5q-229 -182 -661 -182h-18q-229 0 -359 24zM381 238q47 -8 129 -9q252 0 391 162q143 162 143 416q0 166 -92 256t-272 90q-84 0 -125 -8z" />
<glyph unicode="E" horiz-adv-x="1058" d="M39 0l262 1380h817l-49 -252h-520l-57 -294h491l-47 -248h-492l-63 -334h551l-47 -252h-846z" />
<glyph unicode="F" horiz-adv-x="1046" d="M39 0l262 1380h809l-49 -252h-512l-64 -323h482l-49 -250h-480l-104 -555h-295z" />
<glyph unicode="G" horiz-adv-x="1378" d="M98 563q0 190 75 353t208 278q242 201 608 201q244 0 367 -62l-88 -250q-127 57 -293 58q-211 0 -352 -111q-90 -72 -144.5 -189.5t-54.5 -256.5q0 -170 94 -259t260 -89q94 0 150 24l55 291h-213l45 235h502l-137 -723q-235 -77 -442 -77h-5q-291 0 -461 151 q-174 156 -174 426z" />
<glyph unicode="H" horiz-adv-x="1363" d="M39 0l262 1380h295l-102 -538h501l103 538h295l-263 -1380h-294l108 580h-500l-110 -580h-295z" />
<glyph unicode="I" horiz-adv-x="561" d="M33 0l262 1380h295l-262 -1380h-295z" />
<glyph unicode="J" horiz-adv-x="817" d="M-72 10l56 252q75 -24 159 -24h7q102 0 161.5 60t85.5 208l166 874h295l-174 -911q-49 -262 -172 -377t-358 -115q-150 0 -226 33z" />
<glyph unicode="K" horiz-adv-x="1208" d="M39 0l262 1380h291l-117 -616h6q12 18 123 158l383 458h369l-559 -596l319 -784h-319l-232 600l-147 -139l-88 -461h-291z" />
<glyph unicode="L" horiz-adv-x="997" d="M39 0l262 1380h295l-213 -1122h530l-49 -258h-825z" />
<glyph unicode="M" horiz-adv-x="1681" d="M6 0l346 1380h396l43 -524q24 -359 24 -434v-6h8q61 178 187 440l256 524h399l-186 -1380h-287l84 569q45 295 92 539h-6q-129 -301 -238 -520l-282 -565h-230l-49 559q-16 201 -31 526h-4q-14 -63 -37.5 -178t-42 -205t-34.5 -156l-138 -569h-270z" />
<glyph unicode="N" horiz-adv-x="1363" d="M39 0l262 1380h346l182 -526q74 -236 125 -471h7q10 213 63 496l94 501h275l-260 -1380h-306l-192 551q-90 272 -135 481l-6 -2q-25 -199 -91 -547l-90 -483h-274z" />
<glyph unicode="O" horiz-adv-x="1443" d="M98 553q0 188 66.5 363.5t187.5 289.5q207 197 504 197q266 0 411.5 -160t145.5 -416q0 -190 -64.5 -363t-181.5 -288q-205 -199 -510 -199q-260 0 -409.5 163t-149.5 413zM412 563q0 -154 72.5 -247t215.5 -93q127 0 232 101q78 78 123 222t45 273q0 147 -64.5 242.5 t-214.5 95.5q-137 0 -237 -104q-80 -78 -126 -218.5t-46 -271.5z" />
<glyph unicode="P" horiz-adv-x="1144" d="M39 0l256 1354q143 37 360 37q238 0 367 -93q150 -102 149 -292q0 -244 -188 -390q-162 -127 -440 -127q-59 0 -121 9l-94 -498h-289zM467 737q51 -10 113 -10q131 0 212.5 72.5t81.5 179.5q0 176 -210 176q-78 0 -119 -10z" />
<glyph unicode="Q" horiz-adv-x="1443" d="M98 557q0 180 62.5 348t177.5 285q207 213 518 213q268 0 412.5 -165t144.5 -411q0 -178 -61.5 -349t-171.5 -281q-82 -86 -201 -136v-4q176 -46 315 -71l-104 -234q-279 82 -516 195q-78 35 -96 35q-209 16 -344.5 169.5t-135.5 405.5zM412 557q0 -154 71.5 -244 t214.5 -90q131 0 230 99q78 80 125 226t47 277q0 137 -65 234.5t-212 97.5q-137 0 -239 -102q-80 -80 -126 -224.5t-46 -273.5z" />
<glyph unicode="R" horiz-adv-x="1193" d="M39 0l260 1354q152 37 369 37q233 0 362 -80q154 -90 154 -271q0 -145 -86 -244.5t-228 -144.5v-8q106 -45 131 -252q4 -33 9.5 -92t9.5 -97t10 -82t12.5 -74t12.5 -46h-303q-18 53 -41 326q-8 123 -52.5 171t-134.5 48h-90l-102 -545h-293zM477 766h123q121 0 199 65.5 t78 165.5q0 80 -59.5 120t-151.5 40q-74 0 -115 -10z" />
<glyph unicode="S" horiz-adv-x="1044" d="M0 78l98 241q147 -88 326 -88q92 0 155.5 42t63.5 120q0 57 -43 100.5t-143 94.5q-131 72 -209 157.5t-78 208.5q0 203 155.5 326t389.5 123q199 0 325 -70l-92 -246q-115 62 -254 62h-4q-98 0 -153.5 -42t-55.5 -103q0 -29 13.5 -53.5t45 -50.5t60.5 -43t82 -48 q274 -143 274 -364.5t-159.5 -343t-401.5 -121.5q-264 0 -395 98z" />
<glyph unicode="T" horiz-adv-x="1079" d="M137 1122l51 258h1026l-49 -258h-368l-211 -1122h-295l211 1122h-365z" />
<glyph unicode="U" horiz-adv-x="1341" d="M129 418q0 84 21 192l145 770h295l-152 -794q-14 -66 -14 -164q0 -86 52 -141.5t149 -55.5q119 0 193.5 85t111.5 274l151 796h295l-149 -784q-61 -319 -212 -469t-427 -150q-217 0 -338 112t-121 329z" />
<glyph unicode="V" horiz-adv-x="1251" d="M164 1380h305l61 -657q20 -207 33 -424h4q68 178 185 426l309 655h330l-713 -1380h-342z" />
<glyph unicode="W" horiz-adv-x="1769" d="M188 1380h297l2 -614q-4 -319 -8 -447h4q63 184 162 443l248 618h324l-5 -616q-2 -231 -12 -438h4q76 229 152 440l239 614h310l-609 -1380h-321l-10 567q0 223 12 457h-4q-125 -360 -168 -465l-236 -559h-327z" />
<glyph unicode="X" horiz-adv-x="1165" d="M-84 0l516 705l-242 675h312l84 -264q49 -172 63 -229h6q94 172 131 233l160 260h352l-503 -678l264 -702h-314l-94 279q-66 205 -73 235h-5q-8 -14 -57 -101t-84 -145l-162 -268h-354z" />
<glyph unicode="Y" horiz-adv-x="1167" d="M145 1380h316l88 -350q45 -215 53 -250h4q119 215 142 252l206 348h353l-596 -811l-109 -569h-295l107 563z" />
<glyph unicode="Z" horiz-adv-x="1132" d="M-51 0l31 170l800 948v8h-561l49 254h959l-35 -184l-786 -934v-8h616l-47 -254h-1026z" />
<glyph unicode="[" horiz-adv-x="643" d="M0 -229l311 1634h412l-33 -170h-190l-248 -1294h190l-30 -170h-412z" />
<glyph unicode="\" horiz-adv-x="690" d="M106 1403h205l332 -1485h-205z" />
<glyph unicode="]" horiz-adv-x="643" d="M-53 -229l33 170h190l248 1294h-193l33 170h412l-312 -1634h-411z" />
<glyph unicode="^" horiz-adv-x="1220" d="M74 362l428 969h186l428 -969h-223l-297 730h-6l-297 -730h-219z" />
<glyph unicode="_" horiz-adv-x="1024" d="M-131 -256l20 102h1024l-20 -102h-1024z" />
<glyph unicode="`" horiz-adv-x="808" d="M244 1434h286l152 -312h-211z" />
<glyph unicode="a" horiz-adv-x="1134" d="M51 326q0 104 26.5 202.5t84 188.5t140.5 158.5t203 108.5t263 40q176 0 332 -49l-107 -524q-40 -212 -40 -401q0 -25 1 -50h-272q2 53 14 199h-6q-123 -221 -336 -222q-135 0 -219 96.5t-84 252.5zM358 381q0 -76 31 -121t90 -45q74 0 142.5 87t99.5 259l47 232 q-45 8 -80 8q-135 0 -232.5 -135.5t-97.5 -284.5z" />
<glyph unicode="b" horiz-adv-x="1146" d="M74 258q0 74 22 182l203 1014h297l-119 -571h4q119 141 310 141q147 0 225 -101.5t78 -246.5q0 -127 -42 -248t-120 -223.5t-209 -165t-293 -62.5q-176 0 -266 73t-90 208zM379 311q4 -110 111 -110h2q121 0 206.5 135t85.5 278q0 76 -32.5 124t-98.5 48 q-82 0 -151 -77.5t-94 -204.5l-19 -82q-10 -90 -10 -111z" />
<glyph unicode="c" horiz-adv-x="890" d="M59 389q0 270 185.5 452.5t468.5 182.5q121 0 202 -35l-71 -225q-57 24 -129 24h-6q-152 0 -246 -109.5t-94 -256.5q0 -98 55 -152.5t141 -54.5q97 0 199 41l2 -225q-106 -51 -285 -51q-190 0 -306 108.5t-116 300.5z" />
<glyph unicode="d" horiz-adv-x="1146" d="M53 356q0 270 177.5 469t453.5 199q78 0 137 -23l86 453h295l-203 -1065q-41 -215 -47 -389h-270l14 162h-4q-123 -184 -327 -185q-133 0 -222.5 101.5t-89.5 277.5zM360 403q0 -90 37 -139t103 -49q70 0 135 73t92 208l51 270q-43 35 -116 35q-127 0 -214.5 -123 t-87.5 -275z" />
<glyph unicode="e" horiz-adv-x="1026" d="M57 401q0 156 69 296.5t205 233.5t310 93q156 0 252 -81t96 -218q0 -339 -594 -339q-27 0 -55 1q0 -59 31 -102q59 -78 192 -78q150 0 281 63l20 -213q-152 -77 -366 -77h-6q-211 0 -323 111.5t-112 309.5zM369 602h21q323 0 323 121q0 39 -30 62.5t-79 23.5 q-94 0 -155.5 -62.5t-79.5 -144.5z" />
<glyph unicode="f" horiz-adv-x="673" d="M61 0l146 778h-129l43 223h129l10 54q39 217 168 325q111 96 285 97q102 0 157 -25l-51 -235q-41 18 -96 18q-68 0 -113 -52.5t-59 -131.5l-10 -50h198l-43 -223h-196l-146 -778h-293z" />
<glyph unicode="g" horiz-adv-x="1142" d="M25 -365l67 226q41 -25 119 -40.5t143 -15.5q244 0 299 267l17 84h-4q-115 -147 -287 -148q-145 0 -232.5 102.5t-89.5 254.5q0 170 75 317t231.5 244.5t365.5 97.5t371 -70l-152 -825q-61 -326 -211 -444q-141 -113 -387 -113q-214 0 -325 63zM369 410q0 -78 34.5 -126 t100.5 -48q74 0 138 75.5t87 200.5l51 268q-41 18 -106 19q-129 0 -217 -120t-88 -269z" />
<glyph unicode="h" horiz-adv-x="1153" d="M27 0l274 1454h295l-111 -580l4 -2q135 152 320 152q117 0 184.5 -70.5t67.5 -199.5q0 -78 -19 -181l-108 -573h-295l102 549q14 68 15 125q0 112 -101 112h-2q-78 0 -147.5 -89t-97.5 -238l-86 -459h-295z" />
<glyph unicode="i" horiz-adv-x="542" d="M27 0l190 1001h295l-190 -1001h-295zM258 1270q2 74 51 121t119 47q66 0 106.5 -40t40.5 -106q0 -76 -50 -121t-124 -45q-63 0 -103 39t-40 105z" />
<glyph unicode="j" horiz-adv-x="563" d="M-197 -412l35 224q31 -6 66 -7q57 0 96 45.5t61 169.5l185 981h295l-183 -966q-45 -250 -139 -356.5t-274 -106.5q-78 0 -142 16zM279 1270q0 74 49 121t121 47q66 0 106.5 -40t40.5 -106q0 -76 -50 -121t-124 -45q-63 0 -103 39t-40 105z" />
<glyph unicode="k" horiz-adv-x="1085" d="M27 0l274 1454h293l-164 -870h4q61 78 90 114l256 303h363l-426 -411l278 -590h-327l-176 428l-111 -104l-62 -324h-292z" />
<glyph unicode="l" horiz-adv-x="542" d="M27 0l278 1454h295l-278 -1454h-295z" />
<glyph unicode="m" horiz-adv-x="1701" d="M27 0l125 676q27 152 51 325h254l-19 -161h4q129 184 342 184q111 0 171.5 -56.5t66.5 -131.5q131 188 344 188q117 0 181.5 -70.5t64.5 -197.5q0 -80 -19 -172l-108 -584h-285l100 547q14 72 15 123q0 118 -99 118h-2q-74 0 -139 -92t-94 -241l-84 -455h-285l103 551 q14 72 14 115q0 122 -92 122h-2q-76 0 -145.5 -96t-96.5 -241l-82 -451h-284z" />
<glyph unicode="n" horiz-adv-x="1153" d="M27 0l127 676q29 145 53 325h262l-20 -165h4q135 188 352 188q123 0 189.5 -71.5t66.5 -200.5q0 -72 -17 -170l-110 -582h-295l104 555q10 57 11 113q0 118 -97 118h-2q-76 0 -148.5 -92t-100.5 -250l-84 -444h-295z" />
<glyph unicode="o" horiz-adv-x="1144" d="M61 391q0 266 168 449.5t430 183.5q195 0 309.5 -118t114.5 -294q0 -276 -169 -455.5t-429 -179.5q-190 0 -307 114t-117 300zM367 397q0 -88 42 -141t117 -53q113 0 182.5 131t69.5 276q0 80 -37.5 135.5t-119.5 55.5q-80 0 -140.5 -69.5t-88.5 -159.5q-26 -84 -25 -164 v-11z" />
<glyph unicode="p" horiz-adv-x="1150" d="M-53 -406l192 1020q35 186 60 387h264l-19 -145h5q127 168 321 168q156 0 239 -107.5t83 -271.5q0 -270 -163 -469t-417 -199q-117 0 -186 41h-4l-82 -424h-293zM367 250q53 -49 135 -49q115 0 197.5 134t82.5 288q0 68 -30.5 115.5t-98.5 47.5q-84 0 -153.5 -88 t-96.5 -233z" />
<glyph unicode="q" horiz-adv-x="1146" d="M53 356q0 123 43 240t124 214t215 155.5t300 58.5q168 0 371 -59l-256 -1371h-295l121 551h-4q-55 -82 -137 -125t-173 -43q-139 0 -224 104.5t-85 274.5zM360 393q0 -84 34 -131t91 -47q80 0 149.5 80t94.5 213l51 268q-41 23 -114 23q-129 0 -217.5 -128t-88.5 -278z " />
<glyph unicode="r" horiz-adv-x="757" d="M27 0l112 596q8 41 51 405h256q-12 -135 -18 -204h6q55 104 137 165.5t183 61.5q37 0 55 -2l-57 -287q-14 2 -47 2q-246 0 -314 -364l-69 -373h-295z" />
<glyph unicode="s" horiz-adv-x="851" d="M-8 57l71 207q137 -69 260 -70q2 0 3 1q61 0 94 25.5t33 64.5q0 37 -28 66.5t-97 62.5q-213 104 -213 266q0 154 122.5 249t317.5 95q170 0 258 -51l-70 -209q-94 45 -200 45q-59 0 -95 -24.5t-36 -63.5q0 -57 123 -115q223 -115 223 -274q0 -168 -127 -260t-332 -92 q-1 0 -3 -1q-203 0 -304 78z" />
<glyph unicode="t" horiz-adv-x="712" d="M82 778l41 223h129l41 211l301 70l-53 -281h213l-43 -223h-213l-68 -340q-16 -82 -16 -127q0 -84 84 -84q55 0 82 4l-35 -231q-57 -23 -174 -23q-127 0 -193.5 58.5t-66.5 157.5q0 78 20 186l78 399h-127z" />
<glyph unicode="u" horiz-adv-x="1146" d="M84 258q0 84 20 184l105 559h295l-101 -536q-14 -78 -14 -131q0 -117 100 -117q78 0 145.5 87t96.5 235l88 462h295l-129 -675q-8 -41 -53 -326h-260l18 164h-4q-145 -186 -346 -187q-123 0 -189.5 71t-66.5 210z" />
<glyph unicode="v" horiz-adv-x="1048" d="M92 1001h305l45 -438q4 -59 14.5 -146t12.5 -126h8q25 72 111 270l203 440h329l-559 -1001h-299z" />
<glyph unicode="w" horiz-adv-x="1501" d="M104 1001h299l3 -423q0 -135 -11 -320h4q29 86 123 307l197 436h242l24 -421q5 -126 5 -213q0 -65 -3 -109h6q39 129 111 326l170 417h297l-488 -1001h-276l-29 348q-8 139 -8 322h-4q-98 -262 -119 -308l-170 -362h-278z" />
<glyph unicode="x" horiz-adv-x="1019" d="M-98 0l434 518l-236 483h324l59 -149q39 -100 64 -168h6q16 25 50 76l56 84l111 157h338l-422 -485l234 -516h-324l-64 160q-35 88 -63 182h-6q-100 -164 -103 -168l-118 -174h-340z" />
<glyph unicode="y" horiz-adv-x="1017" d="M-51 -209q100 31 170 80q109 76 162 174q12 16 6 49l-199 907h311l62 -436q27 -193 33 -237h4q8 18 22.5 58t30.5 84t35 91l182 440h311l-358 -718q-201 -399 -385 -574q-78 -74 -168 -117t-154 -53z" />
<glyph unicode="z" horiz-adv-x="921" d="M-53 0l33 178l325 350q102 106 246 230l2 6h-428l45 237h782l-32 -186l-320 -340q-127 -135 -244 -231v-4h469l-47 -240h-831z" />
<glyph unicode="{" horiz-adv-x="643" d="M63 510l29 158q94 4 131 42t49 97q10 51 20.5 160.5t18.5 160.5q53 276 353 277h75l-32 -172h-37q-117 0 -150 -146q-8 -37 -16 -121.5t-17 -136.5q-16 -113 -66 -167t-142 -72v-4q133 -31 133 -152q0 -70 -43 -207t-43 -190q0 -94 98 -94h37l-33 -172h-59 q-270 0 -271 217q0 61 49 227q47 154 48 195q-1 98 -132 100z" />
<glyph unicode="|" horiz-adv-x="491" d="M178 -512v2048h201v-2048h-201z" />
<glyph unicode="}" horiz-adv-x="643" d="M-70 -229l33 172h37q119 0 152 145q8 37 15 122t15 136q16 113 66.5 166t144.5 72v4q-135 35 -135 153q0 45 45 207q41 143 41 191q0 94 -98 94h-37l33 172h59q270 0 270 -217q0 -82 -47 -227q-49 -147 -49 -195q0 -98 131 -100l-28 -158q-154 -6 -181 -139 q-8 -47 -18 -158t-21 -164q-53 -276 -352 -276h-76z" />
<glyph unicode="~" horiz-adv-x="1220" d="M100 393q-2 197 75 289t210 92q113 0 281 -96q143 -82 194 -82q76 0 82 166h197q8 -205 -68 -294t-205 -89q-121 0 -301 108q-127 74 -176 74q-84 0 -94 -168h-195z" />
<glyph unicode="&#xa1;" horiz-adv-x="550" d="M-57 -406l223 926h227l-133 -926h-317zM152 813q0 88 56 144.5t144 56.5q74 0 119 -47t45 -121q0 -84 -55 -144.5t-142 -60.5q-76 0 -121.5 48t-45.5 124z" />
<glyph unicode="&#xa2;" d="M172 584q0 233 148.5 396t369.5 202l35 196h195l-37 -186q104 -4 178 -41l-88 -223q-70 37 -172 37q-133 0 -223.5 -98.5t-90.5 -245.5q0 -102 62.5 -162t161.5 -60q90 0 186 41l14 -219q-104 -49 -223 -49l-37 -197h-194l39 201q-158 31 -240 137q-84 106 -84 271z" />
<glyph unicode="&#xa3;" d="M29 0l26 166q80 33 153 104.5t103 151.5q25 59 21 127h-193l41 213h150q4 131 26 223q45 172 169 270.5t315 98.5q143 0 221 -51l-78 -226q-66 33 -154 33q-168 0 -206 -180q-14 -76 -11 -168h281l-41 -213h-248q-6 -61 -29 -121q-39 -113 -133 -174v-4h537l-39 -250 h-911z" />
<glyph unicode="&#xa4;" d="M47 1083l137 142l158 -172q90 73 231 73q147 0 234 -73l160 172l135 -142l-178 -161q68 -102 67 -236q0 -135 -73 -244l176 -166l-136 -137l-153 178q-90 -80 -234 -79q-139 0 -231 75l-147 -174l-138 137l174 164q-76 100 -75.5 241.5t73.5 240.5zM375 684 q0 -117 61.5 -181.5t136.5 -64.5q78 0 138.5 64.5t60.5 181.5q0 104 -57.5 173t-143.5 69q-82 0 -139 -67.5t-57 -174.5z" />
<glyph unicode="&#xa5;" d="M61 328l27 145h307l25 131h-307l26 146h238l-217 581h307l76 -327q37 -166 47 -224h6q90 166 127 226l203 325h325l-450 -581h233l-28 -146h-312l-24 -131h313l-29 -145h-311l-61 -328h-275l60 328h-306z" />
<glyph unicode="&#xa6;" horiz-adv-x="491" d="M178 356h201v-716h-201v716zM178 664v716h201v-716h-201z" />
<glyph unicode="&#xa7;" horiz-adv-x="1138" d="M72 -57l80 184q137 -92 299 -92q88 0 140 31.5t52 83.5q0 43 -43 77.5t-147 75.5q-150 57 -242 130t-92 181q0 96 61.5 176t165.5 128q-53 61 -53 139q0 164 141 255t332 91q198 0 319 -74l-71 -180q-119 63 -271 63q-82 0 -133 -31.5t-51 -84.5q0 -41 43 -70t150 -68 q152 -55 232.5 -127.5t80.5 -189.5q0 -184 -199 -299q55 -55 56 -147q0 -174 -140.5 -263.5t-328.5 -89.5q-238 0 -381 101zM371 688q0 -96 151 -156q158 -63 201 -90q88 53 88 131q0 92 -115 148q-29 12 -112.5 48t-112.5 50q-41 -16 -70.5 -52t-29.5 -79z" />
<glyph unicode="&#xa8;" horiz-adv-x="808" d="M197 1270q0 68 45 110.5t110 42.5q59 0 96 -37.5t37 -97.5q0 -70 -42.5 -111.5t-108.5 -41.5q-57 0 -97 36.5t-40 98.5zM616 1270q0 68 45.5 110.5t110.5 42.5q61 0 97 -37.5t36 -97.5q0 -70 -42.5 -111.5t-108.5 -41.5q-57 0 -97.5 36.5t-40.5 98.5z" />
<glyph unicode="&#xa9;" horiz-adv-x="1378" d="M106 696q0 262 183.5 446.5t443.5 184.5t441.5 -184.5t181.5 -446.5q0 -264 -181.5 -449.5t-441.5 -185.5t-443.5 185.5t-183.5 449.5zM238 692q0 -215 144 -365.5t351 -150.5q203 0 347.5 150.5t144.5 367.5t-143.5 367.5t-348.5 150.5q-207 0 -351 -151.5t-144 -368.5z M387 684q0 170 118 275.5t277 105.5q74 0 141 -17t85 -40l-29 -111q-88 47 -197 47q-119 0 -185.5 -67.5t-66.5 -186.5q0 -111 70 -183.5t180 -72.5q127 0 209 53l31 -108q-100 -66 -256 -66q-174 0 -275.5 104.5t-101.5 266.5z" />
<glyph unicode="&#xaa;" horiz-adv-x="819" d="M125 776q0 180 118.5 307t346.5 127q137 0 254 -45l-72 -411q-16 -88 -16 -209h-197q0 16 1 53t1 55h-2q-86 -119 -227 -118q-90 0 -148.5 64.5t-58.5 176.5zM344 817q0 -117 92 -117q47 0 86 39.5t53 94.5l35 210q-31 12 -69 13q-84 0 -140.5 -76t-56.5 -164z" />
<glyph unicode="&#xab;" horiz-adv-x="944" d="M45 516l277 391h225l-293 -395l195 -387h-205zM440 516l277 391h225l-293 -395l195 -387h-205z" />
<glyph unicode="&#xac;" horiz-adv-x="1220" d="M68 674v190h1048v-647h-198v457h-850z" />
<glyph unicode="&#xad;" horiz-adv-x="659" d="M51 434l39 207h531l-39 -207h-531z" />
<glyph unicode="&#xae;" horiz-adv-x="837" d="M168 1051q0 145 107.5 248.5t259 103.5t257 -103.5t105.5 -248.5q0 -147 -105.5 -251t-257 -104t-259 103.5t-107.5 251.5zM276 1049q0 -111 74 -188t182 -77q111 0 183.5 77t72.5 190q0 111 -72.5 187.5t-183 76.5t-183.5 -77t-73 -189zM387 883v325q68 12 143 13 q92 0 132 -27q35 -25 34 -72q0 -53 -73 -73v-5q51 -14 65 -83q6 -29 23 -78h-111q-6 8 -25 69q-10 49 -55 49h-31v-118h-102zM492 1069h28q61 0 62 41q0 39 -56 39q-8 0 -19 -1t-15 -1v-78z" />
<glyph unicode="&#xaf;" horiz-adv-x="808" d="M283 1196l32 160h504l-33 -160h-503z" />
<glyph unicode="&#xb0;" horiz-adv-x="729" d="M168 1094q-2 125 92 217t225 92q133 0 218 -84t85 -207q0 -129 -95 -218t-224 -89q-133 0 -217 82t-84 207zM334 1096q0 -66 41 -108t102.5 -42t103.5 48t42 116q0 63 -36 107.5t-104 44.5q-63 0 -106 -51.5t-43 -114.5z" />
<glyph unicode="&#xb1;" horiz-adv-x="1220" d="M72 0v190h1048v-190h-1048zM72 641v190h424v355h200v-355h424v-190h-424v-360h-200v360h-424z" />
<glyph unicode="&#xb2;" horiz-adv-x="698" d="M90 831l23 117l155 119q147 109 217 179.5t70 131.5q0 80 -102 80q-94 0 -181 -59l-36 149q131 92 299 92q117 0 195.5 -56t78.5 -163q0 -57 -22.5 -108t-73.5 -101.5t-89 -79t-110 -79.5l-55 -39v-6h289l-35 -177h-623z" />
<glyph unicode="&#xb3;" horiz-adv-x="686" d="M100 889l74 155q84 -61 193 -61q66 0 108.5 28.5t42.5 73.5t-48 72t-124 27h-37l27 137h33q72 0 127 23.5t55 68.5q0 66 -94 66q-107 -1 -191 -60l-20 148q113 74 282 73q115 0 194 -52t79 -134q0 -74 -54.5 -123t-144.5 -71v-5q66 -12 114 -58t48 -114 q0 -123 -109.5 -192.5t-271.5 -69.5q-180 0 -283 68z" />
<glyph unicode="&#xb4;" horiz-adv-x="808" d="M367 1122l192 312h291l-266 -312h-217z" />
<glyph unicode="&#xb5;" horiz-adv-x="1144" d="M2 -406q-23 84 33 369l194 1038h295l-106 -563q-43 -221 110 -221q53 0 99.5 46t77.5 110q20 39 26 78l109 550h295l-129 -671q-12 -68 3 -94.5t58 -28.5l-55 -213q-49 -16 -99 -17q-162 0 -182 187h-6q-100 -178 -252 -178q-102 0 -147 63l-17 -92q-45 -258 -43 -363 h-264z" />
<glyph unicode="&#xb6;" horiz-adv-x="1101" d="M145 879q0 240 182.5 372.5t491.5 132.5q213 0 295 -20l-283 -1464h-190l248 1302h-146l-249 -1302h-191l123 637q-4 0 -13.5 2t-13.5 4q-111 33 -182.5 120t-71.5 216z" />
<glyph unicode="&#xb7;" horiz-adv-x="532" d="M82 510q0 86 56.5 147.5t142.5 61.5q76 0 123 -48t47 -126q0 -90 -56.5 -147.5t-146.5 -57.5q-74 0 -120 48t-46 122z" />
<glyph unicode="&#xb8;" horiz-adv-x="808" d="M49 -381l49 117q53 -33 111 -33q31 0 53.5 15.5t22.5 41.5q0 63 -148 74l113 174h162l-70 -98q55 -12 90 -48t35 -85q0 -102 -79 -150.5t-181.5 -48.5t-157.5 41z" />
<glyph unicode="&#xb9;" horiz-adv-x="561" d="M213 1532l248 98h207l-152 -799h-237l114 605h-4l-158 -66z" />
<glyph unicode="&#xba;" horiz-adv-x="784" d="M111 815q0 174 111.5 284.5t281.5 110.5q139 0 223 -77.5t84 -206.5q0 -176 -112.5 -283.5t-290.5 -107.5q-129 0 -213 79.5t-84 200.5zM330 811q0 -55 28.5 -90t75.5 -35q68 0 112 78t44 172q-1 123 -101 123q-70 0 -114.5 -79t-44.5 -169z" />
<glyph unicode="&#xbb;" horiz-adv-x="942" d="M10 125l295 397l-196 385h204l199 -391l-274 -391h-228zM406 125l294 397l-194 385h205l196 -391l-274 -391h-227z" />
<glyph unicode="&#xbc;" horiz-adv-x="1691" d="M203 1245l250 98h206l-153 -798h-238l115 604h-2l-160 -66zM246 -23l1005 1377h176l-1005 -1377h-176zM846 186l26 131l420 488h275l-88 -465h104l-31 -154h-104l-35 -186h-219l37 186h-385zM1094 340h166l26 143q6 29 39 156h-4q-51 -78 -100 -141l-127 -156v-2z" />
<glyph unicode="&#xbd;" horiz-adv-x="1691" d="M188 1245l248 98h207l-151 -798h-238l115 604h-2l-160 -66zM207 -23l1003 1377h176l-1003 -1377h-176zM891 0l20 117l156 119q147 106 218 177.5t71 133.5q0 80 -105 80q-92 0 -180 -60l-37 150q131 92 299 92q119 0 197 -56.5t78 -162.5q0 -57 -22.5 -108.5t-74 -101.5 t-89.5 -79t-109 -80l-56 -39v-6h289l-35 -176h-620z" />
<glyph unicode="&#xbe;" horiz-adv-x="1691" d="M61 602l74 156q84 -61 193 -62q66 0 108.5 29t42.5 74t-48 71.5t-124 26.5h-37l27 137h33q72 0 127 23.5t55 68.5q0 66 -94 66q-107 0 -191 -59l-20 147q113 74 282 74q115 0 194 -52.5t79 -134.5q0 -74 -54.5 -123t-144.5 -71v-4q66 -12 114 -58.5t48 -113.5 q0 -123 -109.5 -192.5t-271.5 -69.5q-180 0 -283 67zM311 -23l1004 1377h176l-1004 -1377h-176zM868 186l27 131l420 488h274l-88 -465h105l-31 -154h-102l-37 -186h-219l36 186h-385zM1116 340h166l29 143q10 59 39 156h-7q-63 -96 -100 -141l-127 -156v-2z" />
<glyph unicode="&#xbf;" horiz-adv-x="894" d="M-23 -147q0 74 33 144.5t73 117.5t116 125q113 111 141 239l10 49h285q0 -25 -6 -53q-20 -162 -185 -340q-14 -16 -45.5 -48t-47 -49.5t-35 -42t-27.5 -46t-8 -41.5q0 -96 120 -98q129 0 224 57l39 -207q-141 -88 -347 -88q-150 0 -245 78t-95 203zM362 815 q0 88 56.5 144.5t144.5 56.5q74 0 120 -47t46 -121q0 -84 -56.5 -144.5t-142.5 -60.5q-74 0 -121 48t-47 124z" />
<glyph unicode="&#xc0;" horiz-adv-x="1265" d="M-57 0l671 1380h379l162 -1380h-309l-29 358h-397l-164 -358h-313zM459 1712h323l158 -254h-244zM506 584h299l-27 297q-6 88 -20 270h-4q-6 -16 -47 -119.5t-64 -150.5z" />
<glyph unicode="&#xc1;" horiz-adv-x="1265" d="M-57 0l671 1380h379l162 -1380h-309l-29 358h-397l-164 -358h-313zM506 584h299l-27 297q-6 88 -20 270h-4q-6 -16 -47 -119.5t-64 -150.5zM662 1454l192 258h328l-271 -258h-249z" />
<glyph unicode="&#xc2;" horiz-adv-x="1265" d="M-57 0l671 1380h379l162 -1380h-309l-29 358h-397l-164 -358h-313zM492 1454l251 258h226l164 -258h-209l-82 125h-4l-119 -125h-227zM506 584h299l-27 297q-6 88 -20 270h-4q-6 -16 -47 -119.5t-64 -150.5z" />
<glyph unicode="&#xc3;" horiz-adv-x="1265" d="M-57 0l671 1380h379l162 -1380h-309l-29 358h-397l-164 -358h-313zM506 584h299l-27 297q-6 88 -20 270h-4q-6 -16 -47 -119.5t-64 -150.5zM512 1460q20 127 74.5 192.5t128.5 65.5q66 0 129 -41q61 -41 84 -41q45 0 69 90h144q-41 -252 -207 -251q-61 0 -131 36 q-57 39 -82 39q-44 -4 -64 -90h-145z" />
<glyph unicode="&#xc4;" horiz-adv-x="1265" d="M-57 0l671 1380h379l162 -1380h-309l-29 358h-397l-164 -358h-313zM465 1587q0 66 44 108t107 42q57 0 94.5 -38t37.5 -93q0 -63 -44.5 -105.5t-103.5 -42.5q-55 0 -95 36t-40 93zM506 584h299l-27 297q-6 88 -20 270h-4q-6 -16 -47 -119.5t-64 -150.5zM889 1587 q0 66 44 108t107 42q57 0 94 -38t37 -93q0 -63 -44 -105.5t-103 -42.5q-55 0 -95 36t-40 93z" />
<glyph unicode="&#xc5;" horiz-adv-x="1265" d="M-57 0l671 1380h379l162 -1380h-309l-29 358h-397l-164 -358h-313zM506 584h299l-27 297q-6 88 -20 270h-4q-6 -16 -47 -119.5t-64 -150.5zM602 1608q-2 94 68.5 153.5t181.5 59.5q98 0 160.5 -49.5t60.5 -137.5q-2 -96 -73.5 -151.5t-180.5 -55.5q-92 0 -153.5 49.5 t-63.5 131.5zM745 1616q0 -39 23 -63.5t61 -24.5q45 0 72 28.5t27 69.5t-22.5 67.5t-63.5 26.5q-43 0 -70 -29.5t-27 -74.5z" />
<glyph unicode="&#xc6;" horiz-adv-x="1730" d="M-98 0l846 1380h991l-47 -252h-525l-26 -301h497l-45 -249h-460l-25 -326h520l-47 -252h-774l29 379h-398l-223 -379h-313zM578 623h270l29 338q10 147 14 200h-6q-47 -90 -109 -203z" />
<glyph unicode="&#xc7;" horiz-adv-x="1193" d="M100 565q0 225 93.5 403.5t255.5 286.5q211 147 507 148q207 -1 301 -60l-79 -239q-90 45 -250 45q-186 0 -316 -107q-190 -154 -190 -444q0 -168 94 -267.5t272 -99.5q154 0 263 45l24 -237q-117 -51 -315 -59l-49 -70q55 -12 90 -49t35 -90q0 -98 -79 -145.5 t-179 -47.5q-104 0 -160 43l49 117q53 -33 108 -33q76 0 76 55q0 63 -145 74l98 152q-231 29 -367.5 182.5t-136.5 396.5z" />
<glyph unicode="&#xc8;" horiz-adv-x="1058" d="M39 0l262 1380h817l-49 -252h-520l-57 -294h491l-47 -248h-492l-63 -334h551l-47 -252h-846zM397 1712h324l158 -254h-244z" />
<glyph unicode="&#xc9;" horiz-adv-x="1058" d="M39 0l262 1380h817l-49 -252h-520l-57 -294h491l-47 -248h-492l-63 -334h551l-47 -252h-846zM565 1454l193 258h329l-272 -258h-250z" />
<glyph unicode="&#xca;" horiz-adv-x="1058" d="M39 0l262 1380h817l-49 -252h-520l-57 -294h491l-47 -248h-492l-63 -334h551l-47 -252h-846zM399 1454l254 258h224l163 -258h-206l-84 125h-5l-118 -125h-228z" />
<glyph unicode="&#xcb;" horiz-adv-x="1058" d="M39 0l262 1380h817l-49 -252h-520l-57 -294h491l-47 -248h-492l-63 -334h551l-47 -252h-846zM391 1587q0 66 43 108t107 42q59 0 95 -37t36 -94q0 -63 -44.5 -105.5t-103.5 -42.5q-53 0 -93 36t-40 93zM815 1587q0 66 43 108t107 42q59 0 95 -37t36 -94 q0 -63 -44.5 -105.5t-103.5 -42.5q-53 0 -93 36t-40 93z" />
<glyph unicode="&#xcc;" horiz-adv-x="561" d="M33 0l262 1380h295l-262 -1380h-295zM125 1712h324l157 -254h-246z" />
<glyph unicode="&#xcd;" horiz-adv-x="561" d="M33 0l262 1380h295l-262 -1380h-295zM307 1454l193 258h327l-270 -258h-250z" />
<glyph unicode="&#xce;" horiz-adv-x="561" d="M33 0l262 1380h295l-262 -1380h-295zM125 1454l252 258h223l164 -258h-207l-82 125h-4l-119 -125h-227z" />
<glyph unicode="&#xcf;" horiz-adv-x="561" d="M33 0l262 1380h295l-262 -1380h-295zM117 1587q0 66 43 108t106 42q59 0 95 -37t36 -94q0 -66 -43 -107t-104 -41q-53 0 -93 36t-40 93zM541 1587q0 66 43 108t106 42q59 0 95 -37t36 -94q0 -66 -43 -107t-104 -41q-53 0 -93 36t-40 93z" />
<glyph unicode="&#xd0;" horiz-adv-x="1419" d="M20 588l48 243h155l101 529q178 31 374 31q344 0 506 -142q186 -150 187 -438q0 -201 -76 -365.5t-209 -269.5q-231 -184 -660 -184q-227 0 -378 26l110 570h-158zM408 240q43 -8 131 -9q246 0 387 160q145 164 145 410q0 170 -91 261t-267 91q-90 0 -131 -10l-62 -312 h266l-47 -243h-266z" />
<glyph unicode="&#xd1;" horiz-adv-x="1363" d="M39 0l262 1380h346l182 -526q74 -236 125 -471h7q10 213 63 496l94 501h275l-260 -1380h-306l-192 551q-90 272 -135 481l-6 -2q-25 -199 -91 -547l-90 -483h-274zM580 1464q18 127 72.5 192.5t129.5 65.5q63 0 127 -41q61 -41 84 -41q27 0 41.5 19.5t28.5 71.5h143 q-41 -252 -207 -252q-63 0 -129 37q-61 39 -82 38q-45 -4 -63 -90h-145z" />
<glyph unicode="&#xd2;" horiz-adv-x="1443" d="M98 553q0 188 66.5 363.5t187.5 289.5q207 197 504 197q266 0 411.5 -160t145.5 -416q0 -190 -64.5 -363t-181.5 -288q-205 -199 -510 -199q-260 0 -409.5 163t-149.5 413zM412 563q0 -154 72.5 -247t215.5 -93q127 0 232 101q78 78 123 222t45 273q0 147 -64.5 242.5 t-214.5 95.5q-137 0 -237 -104q-80 -78 -126 -218.5t-46 -271.5zM543 1712h321l160 -254h-246z" />
<glyph unicode="&#xd3;" horiz-adv-x="1443" d="M98 553q0 188 66.5 363.5t187.5 289.5q207 197 504 197q266 0 411.5 -160t145.5 -416q0 -190 -64.5 -363t-181.5 -288q-205 -199 -510 -199q-260 0 -409.5 163t-149.5 413zM412 563q0 -154 72.5 -247t215.5 -93q127 0 232 101q78 78 123 222t45 273q0 147 -64.5 242.5 t-214.5 95.5q-137 0 -237 -104q-80 -78 -126 -218.5t-46 -271.5zM735 1460l193 258h327l-270 -258h-250z" />
<glyph unicode="&#xd4;" horiz-adv-x="1443" d="M98 553q0 188 66.5 363.5t187.5 289.5q207 197 504 197q266 0 411.5 -160t145.5 -416q0 -190 -64.5 -363t-181.5 -288q-205 -199 -510 -199q-260 0 -409.5 163t-149.5 413zM412 563q0 -154 72.5 -247t215.5 -93q127 0 232 101q78 78 123 222t45 273q0 147 -64.5 242.5 t-214.5 95.5q-137 0 -237 -104q-80 -78 -126 -218.5t-46 -271.5zM555 1454l252 258h223l164 -258h-207l-82 125h-4l-121 -125h-225z" />
<glyph unicode="&#xd5;" horiz-adv-x="1443" d="M98 553q0 188 66.5 363.5t187.5 289.5q207 197 504 197q266 0 411.5 -160t145.5 -416q0 -190 -64.5 -363t-181.5 -288q-205 -199 -510 -199q-260 0 -409.5 163t-149.5 413zM412 563q0 -154 72.5 -247t215.5 -93q127 0 232 101q78 78 123 222t45 273q0 147 -64.5 242.5 t-214.5 95.5q-137 0 -237 -104q-80 -78 -126 -218.5t-46 -271.5zM592 1464q18 127 72.5 192.5t130.5 65.5q63 0 127 -41q61 -41 84 -41q45 0 69 91h144q-41 -252 -207 -252q-63 0 -129 37q-61 39 -82 38q-46 -4 -64 -90h-145z" />
<glyph unicode="&#xd6;" horiz-adv-x="1443" d="M98 553q0 188 66.5 363.5t187.5 289.5q207 197 504 197q266 0 411.5 -160t145.5 -416q0 -190 -64.5 -363t-181.5 -288q-205 -199 -510 -199q-260 0 -409.5 163t-149.5 413zM412 563q0 -154 72.5 -247t215.5 -93q127 0 232 101q78 78 123 222t45 273q0 147 -64.5 242.5 t-214.5 95.5q-137 0 -237 -104q-80 -78 -126 -218.5t-46 -271.5zM555 1587q0 66 43 108t107 42q57 0 94 -38t37 -93q0 -63 -44.5 -105.5t-103.5 -42.5q-55 0 -94 36t-39 93zM979 1587q0 66 43 108t106 42q57 0 94.5 -38t37.5 -93q0 -63 -44.5 -105.5t-103.5 -42.5 q-55 0 -94 36t-39 93z" />
<glyph unicode="&#xd7;" horiz-adv-x="1220" d="M74 940l133 137l393 -407l391 407l133 -135l-395 -403l395 -402l-135 -137l-391 408l-391 -408l-131 137l391 402z" />
<glyph unicode="&#xd8;" horiz-adv-x="1437" d="M68 -4l147 178q-121 150 -121 393q0 186 65.5 351t186.5 282q203 203 494 203q199 0 323 -86l152 180l149 -119l-157 -190q102 -137 104 -373q0 -184 -64.5 -351t-179.5 -284q-207 -203 -497 -203q-184 0 -301 78l-162 -190zM418 424h6l563 682q-59 53 -164 53 q-133 0 -237.5 -98t-155.5 -248q-66 -197 -12 -389zM541 266q57 -45 155 -45q125 0 224.5 91t148.5 237q66 184 25 379h-7z" />
<glyph unicode="&#xd9;" horiz-adv-x="1341" d="M129 418q0 84 21 192l145 770h295l-152 -794q-14 -66 -14 -164q0 -86 52 -141.5t149 -55.5q119 0 193.5 85t111.5 274l151 796h295l-149 -784q-61 -319 -212 -469t-427 -150q-217 0 -338 112t-121 329zM520 1712h322l159 -254h-245z" />
<glyph unicode="&#xda;" horiz-adv-x="1341" d="M129 418q0 84 21 192l145 770h295l-152 -794q-14 -66 -14 -164q0 -86 52 -141.5t149 -55.5q119 0 193.5 85t111.5 274l151 796h295l-149 -784q-61 -319 -212 -469t-427 -150q-217 0 -338 112t-121 329zM692 1454l193 258h329l-272 -258h-250z" />
<glyph unicode="&#xdb;" horiz-adv-x="1341" d="M129 418q0 84 21 192l145 770h295l-152 -794q-14 -66 -14 -164q0 -86 52 -141.5t149 -55.5q119 0 193.5 85t111.5 274l151 796h295l-149 -784q-61 -319 -212 -469t-427 -150q-217 0 -338 112t-121 329zM530 1454l254 258h224l163 -258h-206l-84 125h-4l-119 -125h-228z " />
<glyph unicode="&#xdc;" horiz-adv-x="1341" d="M129 418q0 84 21 192l145 770h295l-152 -794q-14 -66 -14 -164q0 -86 52 -141.5t149 -55.5q119 0 193.5 85t111.5 274l151 796h295l-149 -784q-61 -319 -212 -469t-427 -150q-217 0 -338 112t-121 329zM516 1587q0 66 43 108t107 42q59 0 95 -37t36 -94 q0 -63 -44.5 -105.5t-103.5 -42.5q-53 0 -93 36t-40 93zM940 1587q0 66 43 108t107 42q59 0 95 -37t36 -94q0 -66 -43.5 -107t-104.5 -41q-53 0 -93 36t-40 93z" />
<glyph unicode="&#xdd;" horiz-adv-x="1167" d="M145 1380h316l88 -350q45 -215 53 -250h4q119 215 142 252l206 348h353l-596 -811l-109 -569h-295l107 563zM580 1454l192 258h330l-273 -258h-249z" />
<glyph unicode="&#xde;" horiz-adv-x="1142" d="M39 0l262 1380h287l-45 -247q61 8 137 8q211 0 324 -99q123 -100 122 -266q0 -254 -175 -385t-433 -131q-78 0 -139 8l-53 -268h-287zM424 510q47 -10 117 -10q123 0 205.5 65.5t82.5 169.5q0 170 -219 170q-75 0 -112 -10z" />
<glyph unicode="&#xdf;" horiz-adv-x="1187" d="M27 0l174 920q104 557 581 557q168 0 276.5 -91.5t108.5 -238.5q0 -129 -86 -209q-141 -70 -141 -166q0 -59 57 -149q90 -139 90 -261q0 -190 -121.5 -287.5t-314.5 -97.5q-143 0 -225 48l68 215q63 -35 149 -35q66 0 104.5 32.5t38.5 90t-55 147.5q-94 147 -94 240 q0 94 58.5 168.5t146.5 122.5q35 41 35 106q0 55 -35 92t-99 37q-86 0 -151.5 -75.5t-93.5 -233.5l-176 -932h-295z" />
<glyph unicode="&#xe0;" horiz-adv-x="1134" d="M51 326q0 104 26.5 202.5t84 188.5t140.5 158.5t203 108.5t263 40q176 0 332 -49l-107 -524q-45 -240 -39 -451h-272q2 53 14 199h-6q-123 -221 -336 -222q-135 0 -219 96.5t-84 252.5zM358 381q0 -76 31 -121t90 -45q74 0 142.5 87t99.5 259l47 232q-45 8 -80 8 q-135 0 -232.5 -135.5t-97.5 -284.5zM412 1434h284l154 -312h-211z" />
<glyph unicode="&#xe1;" horiz-adv-x="1134" d="M51 326q0 104 26.5 202.5t84 188.5t140.5 158.5t203 108.5t263 40q176 0 332 -49l-107 -524q-45 -240 -39 -451h-272q2 53 14 199h-6q-123 -221 -336 -222q-135 0 -219 96.5t-84 252.5zM358 381q0 -76 31 -121t90 -45q74 0 142.5 87t99.5 259l47 232q-45 8 -80 8 q-135 0 -232.5 -135.5t-97.5 -284.5zM608 1122l193 312h291l-267 -312h-217z" />
<glyph unicode="&#xe2;" horiz-adv-x="1134" d="M51 326q0 104 26.5 202.5t84 188.5t140.5 158.5t203 108.5t263 40q176 0 332 -49l-107 -524q-45 -240 -39 -451h-272q2 53 14 199h-6q-123 -221 -336 -222q-135 0 -219 96.5t-84 252.5zM358 381q0 -76 31 -121t90 -45q74 0 142.5 87t99.5 259l47 232q-45 8 -80 8 q-135 0 -232.5 -135.5t-97.5 -284.5zM426 1122l250 312h201l153 -312h-190l-82 162h-4l-119 -162h-209z" />
<glyph unicode="&#xe3;" horiz-adv-x="1134" d="M51 326q0 104 26.5 202.5t84 188.5t140.5 158.5t203 108.5t263 40q176 0 332 -49l-107 -524q-45 -240 -39 -451h-272q2 53 14 199h-6q-123 -221 -336 -222q-135 0 -219 96.5t-84 252.5zM358 381q0 -76 31 -121t90 -45q74 0 142.5 87t99.5 259l47 232q-45 8 -80 8 q-135 0 -232.5 -135.5t-97.5 -284.5zM420 1143q16 125 67.5 191.5t128.5 66.5q63 0 127 -41q59 -39 80 -39q25 0 38 18.5t28 71.5h139q-35 -252 -199 -252q-76 0 -131 41q-49 35 -77 35q-40 0 -58 -92h-143z" />
<glyph unicode="&#xe4;" horiz-adv-x="1134" d="M51 326q0 104 26.5 202.5t84 188.5t140.5 158.5t203 108.5t263 40q176 0 332 -49l-107 -524q-45 -240 -39 -451h-272q2 53 14 199h-6q-123 -221 -336 -222q-135 0 -219 96.5t-84 252.5zM358 381q0 -76 31 -121t90 -45q74 0 142.5 87t99.5 259l47 232q-45 8 -80 8 q-135 0 -232.5 -135.5t-97.5 -284.5zM362 1270q0 68 45.5 110.5t110.5 42.5q59 0 96 -37.5t37 -97.5q0 -70 -42.5 -111.5t-108.5 -41.5q-57 0 -97.5 36.5t-40.5 98.5zM782 1270q0 68 45 110.5t111 42.5q61 0 97 -37.5t36 -97.5q0 -70 -42.5 -111.5t-108.5 -41.5 q-57 0 -97.5 36.5t-40.5 98.5z" />
<glyph unicode="&#xe5;" horiz-adv-x="1134" d="M51 326q0 104 26.5 202.5t84 188.5t140.5 158.5t203 108.5t263 40q176 0 332 -49l-107 -524q-45 -240 -39 -451h-272q2 53 14 199h-6q-123 -221 -336 -222q-135 0 -219 96.5t-84 252.5zM358 381q0 -76 31 -121t90 -45q74 0 142.5 87t99.5 259l47 232q-45 8 -80 8 q-135 0 -232.5 -135.5t-97.5 -284.5zM487 1286q-2 98 68.5 158.5t181.5 60.5q96 0 158.5 -50t62.5 -142q-2 -98 -74.5 -154.5t-178.5 -56.5q-90 0 -153 50t-65 134zM629 1294q0 -37 23.5 -63.5t64.5 -26.5q45 0 72.5 30t27.5 75q0 41 -23.5 67.5t-66.5 26.5t-70.5 -31 t-27.5 -78z" />
<glyph unicode="&#xe6;" horiz-adv-x="1562" d="M8 254q0 141 100.5 238.5t240.5 135.5t302 36l4 22q10 45 -29.5 88t-131.5 43q-150 0 -281 -88l-45 189q168 106 362 106q229 0 297 -162h4q125 162 355 162q166 0 254 -82t88 -192q0 -104 -50.5 -176t-144.5 -106t-204.5 -45t-254.5 -5q-8 -76 17 -121q57 -88 207 -88 q141 0 288 61l9 -209q-150 -84 -367 -84q-113 0 -202 47.5t-130 131.5h-8q-137 -178 -373 -179q-137 0 -222 78t-85 199zM303 301q0 -45 29.5 -71.5t81.5 -26.5q68 0 122 47t70 131l17 90q-49 0 -98.5 -6t-102.5 -23.5t-86 -53.5t-33 -87zM907 621q336 -21 336 98 q0 39 -29.5 65.5t-85.5 26.5q-88 0 -148 -61.5t-73 -128.5z" />
<glyph unicode="&#xe7;" horiz-adv-x="890" d="M59 389q0 270 185.5 452.5t468.5 182.5q120 0 202 -35l-71 -225q-59 25 -135 24q-152 0 -246 -109.5t-94 -256.5q0 -98 55 -152.5t141 -54.5q96 0 199 41l2 -225q-80 -39 -201 -47l-51 -74q55 -12 90 -48t35 -85q0 -102 -79 -150.5t-181.5 -48.5t-157.5 41l49 117 q53 -33 111 -33q31 0 53.5 15.5t22.5 41.5q0 63 -148 74l97 150q-158 23 -252.5 128t-94.5 277z" />
<glyph unicode="&#xe8;" horiz-adv-x="1026" d="M57 401q0 156 69 296.5t205 233.5t310 93q156 0 252 -81t96 -218q0 -354 -649 -338q0 -59 31 -102q59 -78 192 -78q150 0 281 63l20 -213q-154 -78 -372 -77q-211 0 -323 111.5t-112 309.5zM344 1434h285l153 -312h-211zM369 602q344 -4 344 121q0 39 -30 62.5t-79 23.5 q-94 0 -155.5 -62.5t-79.5 -144.5z" />
<glyph unicode="&#xe9;" horiz-adv-x="1026" d="M57 401q0 156 69 296.5t205 233.5t310 93q156 0 252 -81t96 -218q0 -354 -649 -338q0 -59 31 -102q59 -78 192 -78q150 0 281 63l20 -213q-154 -78 -372 -77q-211 0 -323 111.5t-112 309.5zM369 602q344 -4 344 121q0 39 -30 62.5t-79 23.5q-94 0 -155.5 -62.5 t-79.5 -144.5zM528 1122l193 312h291l-267 -312h-217z" />
<glyph unicode="&#xea;" horiz-adv-x="1026" d="M57 401q0 156 69 296.5t205 233.5t310 93q156 0 252 -81t96 -218q0 -354 -649 -338q0 -59 31 -102q59 -78 192 -78q150 0 281 63l20 -213q-154 -78 -372 -77q-211 0 -323 111.5t-112 309.5zM344 1122l250 312h201l153 -312h-190l-82 162h-4l-119 -162h-209zM369 602 q344 -4 344 121q0 39 -30 62.5t-79 23.5q-94 0 -155.5 -62.5t-79.5 -144.5z" />
<glyph unicode="&#xeb;" horiz-adv-x="1026" d="M57 401q0 156 69 296.5t205 233.5t310 93q156 0 252 -81t96 -218q0 -354 -649 -338q0 -59 31 -102q59 -78 192 -78q150 0 281 63l20 -213q-154 -78 -372 -77q-211 0 -323 111.5t-112 309.5zM322 1270q0 68 45 110.5t110 42.5q59 0 96 -37.5t37 -97.5q0 -70 -42.5 -111.5 t-108.5 -41.5q-57 0 -97 36.5t-40 98.5zM369 602q344 -4 344 121q0 39 -30 62.5t-79 23.5q-94 0 -155.5 -62.5t-79.5 -144.5zM741 1270q0 68 45 110.5t111 42.5q61 0 97 -37.5t36 -97.5q0 -70 -42.5 -111.5t-108.5 -41.5q-57 0 -97.5 36.5t-40.5 98.5z" />
<glyph unicode="&#xec;" horiz-adv-x="542" d="M27 0l190 1001h295l-190 -1001h-295zM68 1434h284l154 -312h-211z" />
<glyph unicode="&#xed;" horiz-adv-x="542" d="M27 0l190 1001h295l-190 -1001h-295zM260 1122l193 312h290l-266 -312h-217z" />
<glyph unicode="&#xee;" horiz-adv-x="542" d="M27 0l190 1001h295l-190 -1001h-295zM84 1122l248 312h203l153 -312h-190l-82 162h-4l-121 -162h-207z" />
<glyph unicode="&#xef;" horiz-adv-x="542" d="M27 0l190 1001h295l-190 -1001h-295zM59 1270q0 68 45.5 110.5t110.5 42.5q59 0 96 -37.5t37 -97.5q0 -70 -42.5 -111.5t-108.5 -41.5q-57 0 -97.5 36.5t-40.5 98.5zM479 1270q0 68 45 110.5t111 42.5q61 0 97 -37.5t36 -97.5q0 -70 -43 -111.5t-109 -41.5 q-57 0 -97 36.5t-40 98.5z" />
<glyph unicode="&#xf0;" horiz-adv-x="1142" d="M53 399q0 231 153.5 396.5t377.5 173.5q100 4 161 -47l5 6q-45 115 -123 186l-320 -135l-41 121l248 106q-72 57 -170 101l135 161q150 -55 291 -161l291 118l43 -120l-227 -93q203 -203 202 -538q0 -305 -163.5 -501t-426.5 -196q-205 0 -320.5 118t-115.5 304zM358 393 q0 -84 41 -138t115 -54q113 0 178.5 105.5t71.5 246.5q6 88 -16 135q-39 68 -136 68q-109 0 -181.5 -114t-72.5 -249z" />
<glyph unicode="&#xf1;" horiz-adv-x="1153" d="M27 0l127 676q29 145 53 325h262l-20 -165h4q135 188 352 188q123 0 189.5 -71.5t66.5 -200.5q0 -72 -17 -170l-110 -582h-295l104 555q10 57 11 113q0 119 -99 118q-76 0 -148.5 -92t-100.5 -250l-84 -444h-295zM408 1143q16 125 67 191.5t129 66.5q63 0 127 -41 q59 -39 82 -39t36 18.5t28 71.5h141q-35 -252 -199 -252q-76 0 -131 41q-49 35 -78 35q-39 0 -57 -92h-145z" />
<glyph unicode="&#xf2;" horiz-adv-x="1144" d="M61 391q0 266 168 449.5t430 183.5q195 0 309.5 -118t114.5 -294q0 -276 -169 -455.5t-429 -179.5q-190 0 -307 114t-117 300zM362 1434h285l154 -312h-211zM367 397q0 -88 42 -141t117 -53q113 0 182.5 131t69.5 276q0 80 -37.5 135.5t-119.5 55.5q-80 0 -140.5 -69.5 t-88 -160t-25.5 -174.5z" />
<glyph unicode="&#xf3;" horiz-adv-x="1144" d="M61 391q0 266 168 449.5t430 183.5q195 0 309.5 -118t114.5 -294q0 -276 -169 -455.5t-429 -179.5q-190 0 -307 114t-117 300zM367 397q0 -88 42 -141t117 -53q113 0 182.5 131t69.5 276q0 80 -37.5 135.5t-119.5 55.5q-80 0 -140.5 -69.5t-88 -160t-25.5 -174.5z M545 1122l192 312h291l-266 -312h-217z" />
<glyph unicode="&#xf4;" horiz-adv-x="1144" d="M61 391q0 266 168 449.5t430 183.5q195 0 309.5 -118t114.5 -294q0 -276 -169 -455.5t-429 -179.5q-190 0 -307 114t-117 300zM367 397q0 -88 42 -141t117 -53q113 0 182.5 131t69.5 276q0 80 -37.5 135.5t-119.5 55.5q-80 0 -140.5 -69.5t-88 -160t-25.5 -174.5z M377 1122l250 312h202l152 -312h-190l-80 162h-4l-121 -162h-209z" />
<glyph unicode="&#xf5;" horiz-adv-x="1144" d="M61 391q0 266 168 449.5t430 183.5q195 0 309.5 -118t114.5 -294q0 -276 -169 -455.5t-429 -179.5q-190 0 -307 114t-117 300zM367 397q0 -88 42 -141t117 -53q113 0 182.5 131t69.5 276q0 80 -37.5 135.5t-119.5 55.5q-80 0 -140.5 -69.5t-88 -160t-25.5 -174.5z M381 1143q16 125 67.5 191.5t129.5 66.5q63 0 127 -41q59 -39 81.5 -39t36 18.5t27.5 71.5h141q-35 -252 -198 -252q-76 0 -131 41q-49 35 -78 35q-40 0 -58 -92h-145z" />
<glyph unicode="&#xf6;" horiz-adv-x="1144" d="M61 391q0 266 168 449.5t430 183.5q195 0 309.5 -118t114.5 -294q0 -276 -169 -455.5t-429 -179.5q-190 0 -307 114t-117 300zM348 1270q0 68 45 110.5t111 42.5q59 0 96 -37.5t37 -97.5q0 -70 -43 -111.5t-109 -41.5q-57 0 -97 36.5t-40 98.5zM367 397q0 -88 42 -141 t117 -53q113 0 182.5 131t69.5 276q0 80 -37.5 135.5t-119.5 55.5q-80 0 -140.5 -69.5t-88 -160t-25.5 -174.5zM768 1270q0 68 45 110.5t111 42.5q61 0 97 -37.5t36 -97.5q0 -70 -43 -111.5t-109 -41.5q-57 0 -97 36.5t-40 98.5z" />
<glyph unicode="&#xf7;" horiz-adv-x="1220" d="M88 453v188h1047v-188h-1047zM463 186.5q0 67.5 41 109.5t108.5 42t107.5 -41t42 -111q0 -68 -41 -109.5t-108.5 -41.5t-108.5 42t-41 109.5zM463 905q0 70 41 112t108.5 42t107.5 -41t42 -113q0 -66 -41 -107.5t-108.5 -41.5t-108.5 42t-41 107z" />
<glyph unicode="&#xf8;" horiz-adv-x="1146" d="M35 -31l125 146q-98 104 -99 284q0 260 167 442.5t427 182.5q137 0 232 -57l127 145l90 -80l-123 -141q102 -111 102 -281q0 -281 -169 -457t-410 -176q-158 0 -252 64l-135 -156zM360 446q0 -57 11 -90l4 -2l346 418q-39 39 -105 39q-113 0 -182 -123t-74 -242zM422 233 q35 -41 106 -40q109 0 180.5 115.5t73.5 244.5q2 39 -8 92h-6z" />
<glyph unicode="&#xf9;" horiz-adv-x="1146" d="M84 258q0 84 20 184l105 559h295l-101 -536q-14 -78 -14 -131q0 -117 100 -117q78 0 145.5 87t96.5 235l88 462h295l-129 -675q-8 -41 -53 -326h-260l18 164h-4q-145 -186 -346 -187q-123 0 -189.5 71t-66.5 210zM367 1434h284l154 -312h-211z" />
<glyph unicode="&#xfa;" horiz-adv-x="1146" d="M84 258q0 84 20 184l105 559h295l-101 -536q-14 -78 -14 -131q0 -117 100 -117q78 0 145.5 87t96.5 235l88 462h295l-129 -675q-8 -41 -53 -326h-260l18 164h-4q-145 -186 -346 -187q-123 0 -189.5 71t-66.5 210zM547 1122l192 312h291l-266 -312h-217z" />
<glyph unicode="&#xfb;" horiz-adv-x="1146" d="M84 258q0 84 20 184l105 559h295l-101 -536q-14 -78 -14 -131q0 -117 100 -117q78 0 145.5 87t96.5 235l88 462h295l-129 -675q-8 -41 -53 -326h-260l18 164h-4q-145 -186 -346 -187q-123 0 -189.5 71t-66.5 210zM389 1122l250 312h201l153 -312h-190l-82 162h-4 l-119 -162h-209z" />
<glyph unicode="&#xfc;" horiz-adv-x="1146" d="M84 258q0 84 20 184l105 559h295l-101 -536q-14 -78 -14 -131q0 -117 100 -117q78 0 145.5 87t96.5 235l88 462h295l-129 -675q-8 -41 -53 -326h-260l18 164h-4q-145 -186 -346 -187q-123 0 -189.5 71t-66.5 210zM350 1270q0 68 45 110.5t111 42.5q59 0 96 -37.5 t37 -97.5q0 -70 -43 -111.5t-109 -41.5q-57 0 -97 36.5t-40 98.5zM770 1270q0 68 45 110.5t111 42.5q61 0 97 -37.5t36 -97.5q0 -70 -43 -111.5t-109 -41.5q-57 0 -97 36.5t-40 98.5z" />
<glyph unicode="&#xfd;" horiz-adv-x="1017" d="M-51 -209q100 31 170 80q109 76 162 174q12 16 6 49l-199 907h311l62 -436q27 -193 33 -237h4q8 18 22.5 58t30.5 84t35 91l182 440h311l-358 -718q-201 -399 -385 -574q-78 -74 -168 -117t-154 -53zM483 1122l193 312h291l-267 -312h-217z" />
<glyph unicode="&#xfe;" horiz-adv-x="1155" d="M-53 -406l350 1860h295l-111 -575h4q45 63 119 104t166 41q156 0 241 -106.5t85 -272.5q-2 -281 -167 -474.5t-415 -193.5q-115 0 -188 41h-4l-82 -424h-293zM365 246q57 -45 135 -45q117 0 199.5 130t82.5 287q0 70 -31.5 119t-95.5 49q-84 0 -153.5 -88.5 t-100.5 -246.5z" />
<glyph unicode="&#xff;" horiz-adv-x="1017" d="M-51 -209q100 31 170 80q109 76 162 174q12 16 6 49l-199 907h311l62 -436q27 -193 33 -237h4q8 18 22.5 58t30.5 84t35 91l182 440h311l-358 -718q-201 -399 -385 -574q-78 -74 -168 -117t-154 -53zM270 1270q0 68 44 110.5t110 42.5q61 0 98 -37.5t37 -97.5 q0 -70 -44 -111.5t-107 -41.5q-59 0 -98.5 36.5t-39.5 98.5zM690 1270q0 68 45 110.5t111 42.5q61 0 97 -37.5t36 -97.5q0 -70 -43 -111.5t-109 -41.5q-57 0 -97 36.5t-40 98.5z" />
<glyph unicode="&#x152;" horiz-adv-x="1861" d="M86 561q0 356 229.5 598t612.5 242q68 0 180 -10q98 -10 141 -11h670l-47 -252h-529l-55 -294h498l-47 -250h-498l-61 -332h555l-47 -252h-730q-37 0 -108 -10q-61 -10 -166 -10q-281 0 -439.5 162.5t-158.5 418.5zM403 582q0 -162 92.5 -259.5t256.5 -97.5q68 1 129 17 l170 893q-55 20 -144 20q-221 0 -362.5 -168t-141.5 -405z" />
<glyph unicode="&#x153;" horiz-adv-x="1691" d="M57 406q0 264 161 441t392 177q240 0 328 -178h4q139 178 373 178q162 0 250 -85t88 -200q0 -360 -639 -348q-6 -55 28 -104q61 -78 197 -78q139 0 272 61l19 -207q-147 -86 -359 -86q-240 0 -340 177h-4q-127 -176 -360 -177q-180 0 -295 117t-115 312zM362 410 q0 -92 42 -148.5t114 -56.5q115 0 183.5 130t68.5 269q0 201 -152 201q-117 0 -186.5 -126t-69.5 -269zM1044 606q334 -8 334 111q0 41 -28.5 67.5t-89.5 26.5q-82 0 -138.5 -62.5t-77.5 -142.5z" />
<glyph unicode="&#x178;" horiz-adv-x="1167" d="M145 1380h316l88 -350q45 -215 53 -250h4q119 215 142 252l206 348h353l-596 -811l-109 -569h-295l107 563zM393 1587q0 66 43 108t107 42q59 0 95 -37t36 -94q0 -66 -43.5 -107t-104.5 -41q-53 0 -93 36t-40 93zM817 1587q0 66 43 108t107 42q59 0 95 -37t36 -94 q0 -66 -43.5 -107t-104.5 -41q-53 0 -93 36t-40 93z" />
<glyph unicode="&#x2c6;" horiz-adv-x="808" d="M221 1122l248 312h203l153 -312h-190l-82 162h-4l-121 -162h-207z" />
<glyph unicode="&#x2dc;" horiz-adv-x="808" d="M254 1143q16 125 67.5 191.5t129.5 66.5q63 0 127 -41q57 -39 81 -39q23 0 36.5 18.5t27.5 71.5h141q-35 -252 -198 -252q-76 0 -131 41q-49 35 -78 35q-40 0 -58 -92h-145z" />
<glyph unicode="&#x2000;" horiz-adv-x="910" />
<glyph unicode="&#x2001;" horiz-adv-x="1821" />
<glyph unicode="&#x2002;" horiz-adv-x="910" />
<glyph unicode="&#x2003;" horiz-adv-x="1821" />
<glyph unicode="&#x2004;" horiz-adv-x="607" />
<glyph unicode="&#x2005;" horiz-adv-x="455" />
<glyph unicode="&#x2006;" horiz-adv-x="303" />
<glyph unicode="&#x2007;" horiz-adv-x="303" />
<glyph unicode="&#x2008;" horiz-adv-x="227" />
<glyph unicode="&#x2009;" horiz-adv-x="364" />
<glyph unicode="&#x200a;" horiz-adv-x="101" />
<glyph unicode="&#x2010;" horiz-adv-x="659" d="M51 434l39 207h531l-39 -207h-531z" />
<glyph unicode="&#x2011;" horiz-adv-x="659" d="M51 434l39 207h531l-39 -207h-531z" />
<glyph unicode="&#x2012;" horiz-adv-x="659" d="M51 434l39 207h531l-39 -207h-531z" />
<glyph unicode="&#x2013;" horiz-adv-x="1024" d="M45 424l39 192h901l-37 -192h-903z" />
<glyph unicode="&#x2014;" horiz-adv-x="2048" d="M45 424l39 192h1925l-37 -192h-1927z" />
<glyph unicode="&#x2018;" horiz-adv-x="522" d="M129 831q147 324 322 555l194 17q-143 -285 -223 -553z" />
<glyph unicode="&#x2019;" horiz-adv-x="522" d="M121 831q143 285 223 553l293 19q-154 -334 -322 -555z" />
<glyph unicode="&#x201a;" horiz-adv-x="522" d="M-111 -236q160 324 232 574l307 20q-146 -321 -334 -575z" />
<glyph unicode="&#x201c;" horiz-adv-x="917" d="M127 831q147 324 322 555l194 17q-143 -285 -223 -553zM528 831q154 334 322 555l194 17q-143 -285 -223 -553z" />
<glyph unicode="&#x201d;" horiz-adv-x="917" d="M119 831q143 285 223 553l293 19q-154 -334 -322 -555zM520 831q143 285 223 553l293 19q-154 -334 -321 -555z" />
<glyph unicode="&#x201e;" horiz-adv-x="917" d="M-127 -236q156 307 231 574l308 20q-150 -331 -334 -575zM307 -236q156 307 232 574l307 20q-150 -331 -334 -575z" />
<glyph unicode="&#x2022;" horiz-adv-x="688" d="M84 539q-2 113 76 190.5t190 77.5q111 0 188.5 -78t77.5 -190.5t-76.5 -189.5t-189.5 -77q-111 0 -188.5 77t-77.5 190z" />
<glyph unicode="&#x2026;" horiz-adv-x="2048" d="M90 150q0 86 56.5 147t142.5 61q76 0 123 -48t47 -126q0 -90 -56.5 -147t-146.5 -57q-74 0 -120 48t-46 122zM774 150q0 86 56.5 147t142.5 61q76 0 123 -48t47 -126q0 -90 -56.5 -147t-146.5 -57q-74 0 -120 48t-46 122zM1458 150q0 86 56.5 147t142.5 61q76 0 123 -48 t47 -126q0 -90 -57.5 -147t-145.5 -57q-74 0 -120 48t-46 122z" />
<glyph unicode="&#x202f;" horiz-adv-x="364" />
<glyph unicode="&#x2039;" horiz-adv-x="548" d="M45 516l277 391h225l-293 -395l195 -387h-205z" />
<glyph unicode="&#x203a;" horiz-adv-x="546" d="M10 125l295 397l-196 385h204l199 -391l-274 -391h-228z" />
<glyph unicode="&#x205f;" horiz-adv-x="455" />
<glyph unicode="&#x20ac;" d="M18 479l31 148h129q4 37 17 94h-129l30 145h142q78 213 268 350.5t420 137.5q186 0 301 -62l-88 -225q-90 41 -226 41q-119 0 -219 -69.5t-145 -172.5h475l-33 -145h-497q-10 -51 -17 -94h496l-31 -148h-465q14 -119 86 -187.5t193 -68.5q137 0 241 45l29 -223 q-125 -68 -324 -68q-240 0 -381 135.5t-151 366.5h-152z" />
<glyph unicode="&#x2122;" horiz-adv-x="1429" d="M213 1243v137h489v-137h-161v-422h-170v422h-158zM741 821l35 559h262l37 -137q14 -57 33 -180h4q16 94 39 180l41 137h244l30 -559h-163l-11 246q-2 31 -2 102.5v114.5h-8q-18 -88 -49 -217l-57 -236h-162l-49 238q-4 23 -16.5 99.5t-20.5 115.5h-8q-6 -209 -7 -217 l-12 -246h-160z" />
<glyph unicode="&#xe000;" horiz-adv-x="1003" d="M0 0v1004h1004v-1004h-1004z" />
<glyph unicode="&#xfb01;" horiz-adv-x="1155" d="M63 0l148 778h-131l43 223h129l8 41q39 209 186.5 322t372.5 113q178 0 277 -58l-78 -227q-104 45 -219 45q-215 0 -248 -193l-6 -43h579l-190 -1001h-295l147 778h-282l-148 -778h-293z" />
<glyph unicode="&#xfb02;" horiz-adv-x="1155" d="M61 0l148 778h-129l41 223h131l8 46q37 209 201 327q139 102 373 103q225 0 362 -84l-262 -1393h-295l231 1225q-41 20 -112 20q-84 0 -137.5 -57.5t-69.5 -147.5l-6 -39h172l-41 -223h-172l-148 -778h-295z" />
</font>
</defs>
</svg>
